<?xml version="1.0" ?><svg id="Layer_1" style="enable-background:new 0 0 595.3 595.3;" version="1.1" viewBox="0 0 595.3 595.3" xml:space="preserve" xmlns="http://www.w3.org/2000/svg" xmlns:xlink="http://www.w3.org/1999/xlink"><style type="text/css">
	.st0{fill:#f7f8f9;}
</style><g><path class="st0" d="M443.8,183.3c-1.8-3.1-5.1-5-8.7-5h-275c-3.6,0-6.9,1.9-8.7,5s-1.8,6.9,0,10L237,341.4h-25.8   c-12.7,0-23,10.3-23,23s10.3,23,23,23h7.4V407c0,5.5,4.5,10,10,10h138c5.5,0,10-4.5,10-10v-19.6h7.4c12.7,0,23-10.3,23-23   s-10.3-23-23-23h-25.8l85.5-148.2C445.6,190.2,445.6,186.4,443.8,183.3z M356.7,397h-118v-9.6h118V397z M387.1,364.4   c0,1.7-1.3,3-3,3h-17.4h-138h-17.4c-1.7,0-3-1.3-3-3s1.3-3,3-3h43.1H341h43.1C385.7,361.4,387.1,362.8,387.1,364.4z M335.2,341.4   h-75.1l-82.7-143.2h240.4L335.2,341.4z"/><path class="st0" d="M248.1,297.5l17.1,29.6c1.9,3.2,5.2,5,8.7,5c1.7,0,3.4-0.4,5-1.3c4.8-2.8,6.4-8.9,3.7-13.7l-17.1-29.6   c-2.8-4.8-8.9-6.4-13.7-3.7C247,286.6,245.3,292.7,248.1,297.5z"/><path class="st0" d="M204.8,222.5l27,46.8c1.9,3.2,5.2,5,8.7,5c1.7,0,3.4-0.4,5-1.3c4.8-2.8,6.4-8.9,3.7-13.7l-27-46.8   c-2.8-4.8-8.9-6.4-13.7-3.7C203.7,211.6,202,217.7,204.8,222.5z"/></g></svg>